<svg width="158" height="158" xmlns="http://www.w3.org/2000/svg" xmlns:xlink="http://www.w3.org/1999/xlink" xml:space="preserve" overflow="hidden"><defs><clipPath id="clip0"><rect x="78" y="526" width="158" height="158"/></clipPath><linearGradient x1="157" y1="526" x2="157" y2="684" gradientUnits="userSpaceOnUse" spreadMethod="reflect" id="fill1"><stop offset="0" stop-color="#4F09FF"/><stop offset="0.03125" stop-color="#4E08FE"/><stop offset="0.0625" stop-color="#4E08FE"/><stop offset="0.09375" stop-color="#4E08FE"/><stop offset="0.125" stop-color="#4E08FE"/><stop offset="0.15625" stop-color="#4E08FD"/><stop offset="0.1875" stop-color="#4E08FD"/><stop offset="0.21875" stop-color="#4E08FD"/><stop offset="0.25" stop-color="#4D08FC"/><stop offset="0.28125" stop-color="#4D08FB"/><stop offset="0.3125" stop-color="#4D07FB"/><stop offset="0.34375" stop-color="#4C07FA"/><stop offset="0.375" stop-color="#4C07F9"/><stop offset="0.40625" stop-color="#4C07F8"/><stop offset="0.4375" stop-color="#4B07F7"/><stop offset="0.46875" stop-color="#4B06F7"/><stop offset="0.5" stop-color="#4A06F6"/><stop offset="0.53125" stop-color="#4A06F4"/><stop offset="0.5625" stop-color="#4905F3"/><stop offset="0.59375" stop-color="#4805F2"/><stop offset="0.625" stop-color="#4805F1"/><stop offset="0.65625" stop-color="#4704F0"/><stop offset="0.6875" stop-color="#4704EE"/><stop offset="0.71875" stop-color="#4604ED"/><stop offset="0.75" stop-color="#4503EB"/><stop offset="0.78125" stop-color="#4403EA"/><stop offset="0.8125" stop-color="#4402E8"/><stop offset="0.84375" stop-color="#4302E7"/><stop offset="0.875" stop-color="#4201E5"/><stop offset="0.90625" stop-color="#4101E3"/><stop offset="0.9375" stop-color="#4001E1"/><stop offset="0.96875" stop-color="#3F00DF"/><stop offset="1" stop-color="#3F00DE"/></linearGradient></defs><g clip-path="url(#clip0)" transform="translate(-78 -526)"><path d="M157 526 157 539.019 157 539.019C120.56 539.019 91.0193 568.56 91.0191 605L92.0149 614.876 112.61 602.986 113.313 596.013C117.471 575.692 135.45 560.406 157 560.406 160.079 560.406 163.084 560.719 165.987 561.312L169.525 562.411 169.525 545.569 169.92 545.569 169.92 527.302 172.921 527.605C208.92 534.971 236 566.823 236 605 236 615.908 233.79 626.299 229.792 635.75L225.038 644.509 213.903 638.08 216.474 633.605C220.644 624.952 222.981 615.249 222.981 605 222.981 577.67 206.364 554.221 182.683 544.204L181.083 543.708 181.083 567.561 181.933 568.022C193.795 576.036 201.594 589.607 201.594 605 201.594 617.314 196.602 628.463 188.533 636.532L187.611 637.292 194.781 641.432 194.553 641.827 217.592 655.129 212.862 660.862C198.565 675.158 178.815 684 157 684 129.731 684 105.689 670.184 91.4919 649.17L88.9404 644.469 99.9946 638.087 100.572 639.214C112.144 658.259 133.086 670.981 157 670.981 170.665 670.981 183.36 666.827 193.891 659.712L197.776 656.507 177.127 644.586 174.358 646.089C169.023 648.346 163.157 649.594 157 649.594 138.529 649.594 122.681 638.363 115.911 622.358L113.823 615.631 103.46 621.614 103.266 621.279 83.2951 632.809 79.605 620.921C78.5526 615.779 78 610.454 78 605 78 561.369 113.37 526 157 526ZM157 585.641C146.308 585.641 137.641 594.308 137.641 605 137.641 615.692 146.308 624.359 157 624.359 167.692 624.359 176.359 615.692 176.359 605 176.359 594.308 167.692 585.641 157 585.641Z" fill="url(#fill1)" fill-rule="evenodd"/></g></svg>